# xmcd
#
# Track frame offsets: 
#        150
#        13022
#        28792
#        46792
#        58167
#        76347
#        90627
#        104080
#        118215
#        128267
#        138025
#
# Disc length: 2005 seconds
#
# Revision: 2
# Processed by: cddbd v1.5.2PL0 Copyright (c) Steve Scherf et al.
# Submitted via: ExactAudioCopy v0.99pb5
#
DISCID=8907d30b
DTITLE=Stan Getz, Herbie Hancock, Hank Jones, Jim Hall, Ron Carter - V
DTITLE=oices
DYEAR=1966
DGENRE=Jazz
TTITLE0=Once <C. Ogerman, G. Wood>
TTITLE1=I Didn't Know What Time It Was <R. Rodgers, L. Hart>
TTITLE2=Nica's Dream <H. Silver>
TTITLE3=(Little Rio) Un Poco Rio <C. Ogerman>
TTITLE4=Keep Me In Your Heart (Chiedilo a Chi Vuoi) <G. Calabrese, G. 
TTITLE4=Colonello, S. Crystal>
TTITLE5=Zigeuner Song <P. Kreuder, G. Schwenn>
TTITLE6=Barbara's Theme (Aka"I Want To Live") <J. Mandel>
TTITLE7=Where Flamingos Fly <J. B. Brooks, H. Courlander, E. P. Brooks
TTITLE7=>
TTITLE8=Midnight Samba <W. Bochmann, M. Bergner>
TTITLE9=Infinidad <S. J. Gelber>
TTITLE10=Darling Joe <C. Ogerman, T. Gray>
EXTD=YEAR: 1966
EXTT0=
EXTT1=
EXTT2=
EXTT3=
EXTT4=
EXTT5=
EXTT6=
EXTT7=
EXTT8=
EXTT9=
EXTT10=
PLAYORDER=
